<?xml version="1.0" encoding="UTF-8"?><svg xmlns="http://www.w3.org/2000/svg" xmlns:xlink="http://www.w3.org/1999/xlink" fill-opacity="1" color-rendering="auto" color-interpolation="auto" text-rendering="auto" stroke="black" stroke-linecap="square" width="1000" stroke-miterlimit="10" shape-rendering="auto" stroke-opacity="1" fill="black" stroke-dasharray="none" font-weight="normal" stroke-width="1" height="888" font-family="'Dialog'" font-style="normal" stroke-linejoin="miter" font-size="12px" stroke-dashoffset="0" image-rendering="auto">
  <!--Generated by ySVG 2.6-->
  <defs id="genericDefs"/>
  <g>
    <defs id="defs1">
      <linearGradient x1="-1985.792" gradientUnits="userSpaceOnUse" x2="-1746.9795" y1="-1177.153" y2="-1096.6217" id="linearGradient1" spreadMethod="reflect">
        <stop stop-opacity="1" stop-color="rgb(224,255,239)" offset="0%"/>
        <stop stop-opacity="1" stop-color="rgb(204,255,204)" offset="100%"/>
      </linearGradient>
      <linearGradient x1="-2027.792" gradientUnits="userSpaceOnUse" x2="-1704.9795" y1="-1058.403" y2="-977.8718" id="linearGradient2" spreadMethod="reflect">
        <stop stop-opacity="1" stop-color="rgb(224,255,239)" offset="0%"/>
        <stop stop-opacity="1" stop-color="rgb(204,255,204)" offset="100%"/>
      </linearGradient>
      <linearGradient x1="-2027.792" gradientUnits="userSpaceOnUse" x2="-1704.9795" y1="-939.653" y2="-859.1218" id="linearGradient3" spreadMethod="reflect">
        <stop stop-opacity="1" stop-color="rgb(224,255,239)" offset="0%"/>
        <stop stop-opacity="1" stop-color="rgb(204,255,204)" offset="100%"/>
      </linearGradient>
      <linearGradient x1="-2027.792" gradientUnits="userSpaceOnUse" x2="-1704.9795" y1="-820.903" y2="-712.3718" id="linearGradient4" spreadMethod="reflect">
        <stop stop-opacity="1" stop-color="rgb(224,255,239)" offset="0%"/>
        <stop stop-opacity="1" stop-color="rgb(204,255,204)" offset="100%"/>
      </linearGradient>
      <linearGradient x1="-2027.792" gradientUnits="userSpaceOnUse" x2="-1704.9795" y1="-674.153" y2="-593.6218" id="linearGradient5" spreadMethod="reflect">
        <stop stop-opacity="1" stop-color="rgb(224,255,239)" offset="0%"/>
        <stop stop-opacity="1" stop-color="rgb(204,255,204)" offset="100%"/>
      </linearGradient>
      <linearGradient x1="-2027.792" gradientUnits="userSpaceOnUse" x2="-1704.9795" y1="-555.403" y2="-474.8718" id="linearGradient6" spreadMethod="reflect">
        <stop stop-opacity="1" stop-color="rgb(224,255,239)" offset="0%"/>
        <stop stop-opacity="1" stop-color="rgb(204,255,204)" offset="100%"/>
      </linearGradient>
      <linearGradient x1="-1584.2698" gradientUnits="userSpaceOnUse" x2="-1261.4573" y1="-1058.403" y2="-977.8718" id="linearGradient7" spreadMethod="reflect">
        <stop stop-opacity="1" stop-color="rgb(224,255,239)" offset="0%"/>
        <stop stop-opacity="1" stop-color="rgb(204,255,204)" offset="100%"/>
      </linearGradient>
      <linearGradient x1="-1584.2698" gradientUnits="userSpaceOnUse" x2="-1261.4573" y1="-939.653" y2="-859.1218" id="linearGradient8" spreadMethod="reflect">
        <stop stop-opacity="1" stop-color="rgb(224,255,239)" offset="0%"/>
        <stop stop-opacity="1" stop-color="rgb(204,255,204)" offset="100%"/>
      </linearGradient>
      <linearGradient x1="-1584.2698" gradientUnits="userSpaceOnUse" x2="-1261.4573" y1="-806.903" y2="-726.3718" id="linearGradient9" spreadMethod="reflect">
        <stop stop-opacity="1" stop-color="rgb(224,255,239)" offset="0%"/>
        <stop stop-opacity="1" stop-color="rgb(204,255,204)" offset="100%"/>
      </linearGradient>
      <linearGradient x1="-1584.2698" gradientUnits="userSpaceOnUse" x2="-1261.4573" y1="-674.153" y2="-593.6218" id="linearGradient10" spreadMethod="reflect">
        <stop stop-opacity="1" stop-color="rgb(224,255,239)" offset="0%"/>
        <stop stop-opacity="1" stop-color="rgb(204,255,204)" offset="100%"/>
      </linearGradient>
      <linearGradient x1="-1542.2698" gradientUnits="userSpaceOnUse" x2="-1303.4573" y1="-555.403" y2="-474.8718" id="linearGradient11" spreadMethod="reflect">
        <stop stop-opacity="1" stop-color="rgb(224,255,239)" offset="0%"/>
        <stop stop-opacity="1" stop-color="rgb(204,255,204)" offset="100%"/>
      </linearGradient>
      <clipPath clipPathUnits="userSpaceOnUse" id="clipPath1">
        <path d="M0 0 L1000 0 L1000 888 L0 888 L0 0 Z"/>
      </clipPath>
      <clipPath clipPathUnits="userSpaceOnUse" id="clipPath2">
        <path d="M-2126 -1193 L-1246 -1193 L-1246 -411.56 L-2126 -411.56 L-2126 -1193 Z"/>
      </clipPath>
    </defs>
    <g fill="white" text-rendering="geometricPrecision" shape-rendering="geometricPrecision" transform="scale(1.1364,1.1364) translate(2126,1193)" stroke="white">
      <rect x="-2126" width="880" height="782" y="-1193" clip-path="url(#clipPath2)" stroke="none"/>
    </g>
    <g fill="url(#linearGradient1)" text-rendering="geometricPrecision" shape-rendering="geometricPrecision" transform="matrix(1.1364,0,0,1.1364,2415.9091,1355.6818)" stroke="url(#linearGradient1)">
      <ellipse rx="119.4063" ry="40.2656" clip-path="url(#clipPath2)" cx="-1866.3857" cy="-1136.8874" stroke="none"/>
    </g>
    <g text-rendering="geometricPrecision" stroke-miterlimit="1.45" shape-rendering="geometricPrecision" transform="matrix(1.1364,0,0,1.1364,2415.9091,1355.6818)" stroke-linecap="butt">
      <ellipse rx="119.4063" fill="none" ry="40.2656" clip-path="url(#clipPath2)" cx="-1866.3857" cy="-1136.8874"/>
      <text x="-1900.895" font-size="25px" y="-1128.4523" clip-path="url(#clipPath2)" font-family="'Liberation Serif'" stroke="none" font-weight="bold" xml:space="preserve">Старт</text>
    </g>
    <g fill="url(#linearGradient2)" text-rendering="geometricPrecision" shape-rendering="geometricPrecision" transform="matrix(1.1364,0,0,1.1364,2415.9091,1355.6818)" stroke="url(#linearGradient2)">
      <path d="M-2007.2565 -1058.403 L-1704.9795 -1058.403 L-1725.5149 -977.8718 L-2027.792 -977.8718 Z" stroke="none" clip-path="url(#clipPath2)"/>
    </g>
    <g text-rendering="geometricPrecision" stroke-miterlimit="1.45" shape-rendering="geometricPrecision" transform="matrix(1.1364,0,0,1.1364,2415.9091,1355.6818)" stroke-linecap="butt">
      <path fill="none" d="M-2007.2565 -1058.403 L-1704.9795 -1058.403 L-1725.5149 -977.8718 L-2027.792 -977.8718 Z" clip-path="url(#clipPath2)"/>
      <text x="-1992.8994" font-size="25px" y="-1023.5451" clip-path="url(#clipPath2)" font-family="'Liberation Serif'" stroke="none" font-weight="bold" xml:space="preserve">Ввод данных в форму </text>
      <text x="-1992.8994" font-size="25px" y="-995.8596" clip-path="url(#clipPath2)" font-family="'Liberation Serif'" stroke="none" font-weight="bold" xml:space="preserve">пользователем</text>
    </g>
    <g fill="url(#linearGradient3)" text-rendering="geometricPrecision" shape-rendering="geometricPrecision" transform="matrix(1.1364,0,0,1.1364,2415.9091,1355.6818)" stroke="url(#linearGradient3)">
      <path d="M-2027.792 -939.653 L-1704.9795 -939.653 L-1704.9795 -859.1218 L-2027.792 -859.1218 Z" stroke="none" clip-path="url(#clipPath2)"/>
    </g>
    <g text-rendering="geometricPrecision" stroke-miterlimit="1.45" shape-rendering="geometricPrecision" transform="matrix(1.1364,0,0,1.1364,2415.9091,1355.6818)" stroke-linecap="butt">
      <path fill="none" d="M-2027.792 -939.653 L-1704.9795 -939.653 L-1704.9795 -859.1218 L-2027.792 -859.1218 Z" clip-path="url(#clipPath2)"/>
      <text x="-1975.0405" font-size="25px" y="-890.9523" clip-path="url(#clipPath2)" font-family="'Liberation Serif'" stroke="none" font-weight="bold" xml:space="preserve">Валидация данных</text>
    </g>
    <g fill="url(#linearGradient4)" text-rendering="geometricPrecision" shape-rendering="geometricPrecision" transform="matrix(1.1364,0,0,1.1364,2415.9091,1355.6818)" stroke="url(#linearGradient4)">
      <path d="M-1866.3857 -820.903 L-1704.9795 -766.6374 L-1866.3857 -712.3718 L-2027.792 -766.6374 Z" stroke="none" clip-path="url(#clipPath2)"/>
    </g>
    <g text-rendering="geometricPrecision" stroke-miterlimit="1.45" shape-rendering="geometricPrecision" transform="matrix(1.1364,0,0,1.1364,2415.9091,1355.6818)" stroke-linecap="butt">
      <path fill="none" d="M-1866.3857 -820.903 L-1704.9795 -766.6374 L-1866.3857 -712.3718 L-2027.792 -766.6374 Z" clip-path="url(#clipPath2)"/>
      <text x="-1970.823" font-size="25px" y="-758.2023" clip-path="url(#clipPath2)" font-family="'Liberation Serif'" stroke="none" font-weight="bold" xml:space="preserve">Данные валидны?</text>
    </g>
    <g fill="url(#linearGradient5)" text-rendering="geometricPrecision" shape-rendering="geometricPrecision" transform="matrix(1.1364,0,0,1.1364,2415.9091,1355.6818)" stroke="url(#linearGradient5)">
      <path d="M-2027.792 -674.153 L-1704.9795 -674.153 L-1704.9795 -593.6218 L-2027.792 -593.6218 Z" stroke="none" clip-path="url(#clipPath2)"/>
    </g>
    <g text-rendering="geometricPrecision" stroke-miterlimit="1.45" shape-rendering="geometricPrecision" transform="matrix(1.1364,0,0,1.1364,2415.9091,1355.6818)" stroke-linecap="butt">
      <path fill="none" d="M-2027.792 -674.153 L-1704.9795 -674.153 L-1704.9795 -593.6218 L-2027.792 -593.6218 Z" clip-path="url(#clipPath2)"/>
      <text x="-1996.5615" font-size="25px" y="-625.4523" clip-path="url(#clipPath2)" font-family="'Liberation Serif'" stroke="none" font-weight="bold" xml:space="preserve">Формирование фактов</text>
    </g>
    <g fill="url(#linearGradient6)" text-rendering="geometricPrecision" shape-rendering="geometricPrecision" transform="matrix(1.1364,0,0,1.1364,2415.9091,1355.6818)" stroke="url(#linearGradient6)">
      <path d="M-2027.792 -555.403 L-1704.9795 -555.403 L-1704.9795 -474.8718 L-2027.792 -474.8718 Z" stroke="none" clip-path="url(#clipPath2)"/>
    </g>
    <g text-rendering="geometricPrecision" stroke-miterlimit="1.45" shape-rendering="geometricPrecision" transform="matrix(1.1364,0,0,1.1364,2415.9091,1355.6818)" stroke-linecap="butt">
      <path fill="none" d="M-2027.792 -555.403 L-1704.9795 -555.403 L-1704.9795 -474.8718 L-2027.792 -474.8718 Z" clip-path="url(#clipPath2)"/>
      <text x="-1950.7485" font-size="25px" y="-506.7023" clip-path="url(#clipPath2)" font-family="'Liberation Serif'" stroke="none" font-weight="bold" xml:space="preserve">Прямой вывод</text>
    </g>
    <g fill="url(#linearGradient7)" text-rendering="geometricPrecision" shape-rendering="geometricPrecision" transform="matrix(1.1364,0,0,1.1364,2415.9091,1355.6818)" stroke="url(#linearGradient7)">
      <path d="M-1584.2698 -1058.403 L-1261.4573 -1058.403 L-1261.4573 -977.8718 L-1584.2698 -977.8718 Z" stroke="none" clip-path="url(#clipPath2)"/>
    </g>
    <g text-rendering="geometricPrecision" stroke-miterlimit="1.45" shape-rendering="geometricPrecision" transform="matrix(1.1364,0,0,1.1364,2415.9091,1355.6818)" stroke-linecap="butt">
      <path fill="none" d="M-1584.2698 -1058.403 L-1261.4573 -1058.403 L-1261.4573 -977.8718 L-1584.2698 -977.8718 Z" clip-path="url(#clipPath2)"/>
      <text x="-1563.3115" font-size="25px" y="-1009.7023" clip-path="url(#clipPath2)" font-family="'Liberation Serif'" stroke="none" font-weight="bold" xml:space="preserve">Разрешение конфликтов</text>
    </g>
    <g fill="url(#linearGradient8)" text-rendering="geometricPrecision" shape-rendering="geometricPrecision" transform="matrix(1.1364,0,0,1.1364,2415.9091,1355.6818)" stroke="url(#linearGradient8)">
      <path d="M-1584.2698 -939.653 L-1261.4573 -939.653 L-1261.4573 -859.1218 L-1584.2698 -859.1218 Z" stroke="none" clip-path="url(#clipPath2)"/>
    </g>
    <g text-rendering="geometricPrecision" stroke-miterlimit="1.45" shape-rendering="geometricPrecision" transform="matrix(1.1364,0,0,1.1364,2415.9091,1355.6818)" stroke-linecap="butt">
      <path fill="none" d="M-1584.2698 -939.653 L-1261.4573 -939.653 L-1261.4573 -859.1218 L-1584.2698 -859.1218 Z" clip-path="url(#clipPath2)"/>
      <text x="-1521.301" font-size="25px" y="-890.9523" clip-path="url(#clipPath2)" font-family="'Liberation Serif'" stroke="none" font-weight="bold" xml:space="preserve">Обратный вывод</text>
    </g>
    <g fill="url(#linearGradient9)" text-rendering="geometricPrecision" shape-rendering="geometricPrecision" transform="matrix(1.1364,0,0,1.1364,2415.9091,1355.6818)" stroke="url(#linearGradient9)">
      <path d="M-1584.2698 -806.903 L-1261.4573 -806.903 L-1261.4573 -726.3718 L-1584.2698 -726.3718 Z" stroke="none" clip-path="url(#clipPath2)"/>
    </g>
    <g text-rendering="geometricPrecision" stroke-miterlimit="1.45" shape-rendering="geometricPrecision" transform="matrix(1.1364,0,0,1.1364,2415.9091,1355.6818)" stroke-linecap="butt">
      <path fill="none" d="M-1584.2698 -806.903 L-1261.4573 -806.903 L-1261.4573 -726.3718 L-1584.2698 -726.3718 Z" clip-path="url(#clipPath2)"/>
      <text x="-1573.9744" font-size="25px" y="-758.2023" clip-path="url(#clipPath2)" font-family="'Liberation Serif'" stroke="none" font-weight="bold" xml:space="preserve">Формирование результата</text>
    </g>
    <g fill="url(#linearGradient10)" text-rendering="geometricPrecision" shape-rendering="geometricPrecision" transform="matrix(1.1364,0,0,1.1364,2415.9091,1355.6818)" stroke="url(#linearGradient10)">
      <path d="M-1563.7344 -674.153 L-1261.4573 -674.153 L-1281.9928 -593.6218 L-1584.2698 -593.6218 Z" stroke="none" clip-path="url(#clipPath2)"/>
    </g>
    <g text-rendering="geometricPrecision" stroke-miterlimit="1.45" shape-rendering="geometricPrecision" transform="matrix(1.1364,0,0,1.1364,2415.9091,1355.6818)" stroke-linecap="butt">
      <path fill="none" d="M-1563.7344 -674.153 L-1261.4573 -674.153 L-1281.9928 -593.6218 L-1584.2698 -593.6218 Z" clip-path="url(#clipPath2)"/>
      <text x="-1526.3303" font-size="25px" y="-639.2951" clip-path="url(#clipPath2)" font-family="'Liberation Serif'" stroke="none" font-weight="bold" xml:space="preserve">Вывод карточки с</text>
      <text x="-1526.3303" font-size="25px" y="-611.6096" clip-path="url(#clipPath2)" font-family="'Liberation Serif'" stroke="none" font-weight="bold" xml:space="preserve"> рекомендацией</text>
    </g>
    <g fill="url(#linearGradient11)" text-rendering="geometricPrecision" shape-rendering="geometricPrecision" transform="matrix(1.1364,0,0,1.1364,2415.9091,1355.6818)" stroke="url(#linearGradient11)">
      <ellipse rx="119.4063" ry="40.2656" clip-path="url(#clipPath2)" cx="-1422.8636" cy="-515.1374" stroke="none"/>
    </g>
    <g text-rendering="geometricPrecision" stroke-miterlimit="1.45" shape-rendering="geometricPrecision" transform="matrix(1.1364,0,0,1.1364,2415.9091,1355.6818)" stroke-linecap="butt">
      <ellipse rx="119.4063" fill="none" ry="40.2656" clip-path="url(#clipPath2)" cx="-1422.8636" cy="-515.1374"/>
      <text x="-1458.1296" font-size="25px" y="-506.7023" clip-path="url(#clipPath2)" font-family="'Liberation Serif'" stroke="none" font-weight="bold" xml:space="preserve">Конец</text>
    </g>
    <g text-rendering="geometricPrecision" stroke-miterlimit="1.45" stroke-width="3" shape-rendering="geometricPrecision" transform="matrix(1.1364,0,0,1.1364,2415.9091,1355.6818)" stroke-linecap="butt">
      <path fill="none" d="M-1866.3857 -1096.6179 L-1866.3857 -1068.4124" clip-path="url(#clipPath2)"/>
    </g>
    <g text-rendering="geometricPrecision" stroke-miterlimit="1.45" stroke-width="3" shape-rendering="geometricPrecision" transform="matrix(1.1364,0,0,1.1364,2415.9091,1355.6818)" stroke-linecap="butt">
      <path d="M-1866.3857 -1058.4124 L-1860.1357 -1073.4124 L-1866.3857 -1069.6624 L-1872.6357 -1073.4124 Z" stroke="none" clip-path="url(#clipPath2)"/>
      <path fill="none" d="M-1866.3857 -977.8679 L-1866.3857 -949.6623" clip-path="url(#clipPath2)"/>
      <path d="M-1866.3857 -939.6623 L-1860.1357 -954.6623 L-1866.3857 -950.9123 L-1872.6357 -954.6623 Z" clip-path="url(#clipPath2)" stroke="none"/>
      <path fill="none" d="M-1866.3857 -859.1022 L-1866.3857 -830.8611" clip-path="url(#clipPath2)"/>
      <path d="M-1866.3857 -820.8611 L-1860.1357 -835.8611 L-1866.3857 -832.1111 L-1872.6357 -835.8611 Z" clip-path="url(#clipPath2)" stroke="none"/>
      <path fill="none" d="M-2023.7809 -765.2919 L-2110.1665 -764.0139 L-2110.1665 -1018.1374 L-2027.4979 -1018.1374" clip-path="url(#clipPath2)"/>
      <path d="M-2017.4979 -1018.1374 L-2032.4979 -1024.3875 L-2028.7479 -1018.1374 L-2032.4979 -1011.8874 Z" clip-path="url(#clipPath2)" stroke="none"/>
      <text x="-2102.1541" font-size="25px" y="-823.7177" clip-path="url(#clipPath2)" font-family="'Liberation Serif'" stroke="none" stroke-width="1" xml:space="preserve">Нет</text>
      <path fill="none" d="M-1866.3857 -712.3512 L-1866.3857 -684.1537" clip-path="url(#clipPath2)"/>
      <path d="M-1866.3857 -674.1537 L-1860.1357 -689.1537 L-1866.3857 -685.4037 L-1872.6357 -689.1537 Z" clip-path="url(#clipPath2)" stroke="none"/>
      <text x="-1910.4604" font-size="25px" y="-684.8273" clip-path="url(#clipPath2)" font-family="'Liberation Serif'" stroke="none" stroke-width="1" xml:space="preserve">Да</text>
      <path fill="none" d="M-1866.3857 -593.6179 L-1866.3857 -565.4123" clip-path="url(#clipPath2)"/>
      <path d="M-1866.3857 -555.4123 L-1860.1357 -570.4123 L-1866.3857 -566.6623 L-1872.6357 -570.4123 Z" clip-path="url(#clipPath2)" stroke="none"/>
      <path fill="none" d="M-1866.3857 -474.8893 L-1866.3857 -426.0261 L-1631.9205 -426.0261 L-1631.9205 -1140.2795 L-1422.8635 -1140.2795 L-1422.8635 -1068.424" clip-path="url(#clipPath2)"/>
      <path d="M-1422.8635 -1058.424 L-1416.6135 -1073.424 L-1422.8635 -1069.674 L-1429.1135 -1073.424 Z" clip-path="url(#clipPath2)" stroke="none"/>
      <path fill="none" d="M-1422.8635 -977.8679 L-1422.8635 -949.6623" clip-path="url(#clipPath2)"/>
      <path d="M-1422.8635 -939.6623 L-1416.6135 -954.6623 L-1422.8635 -950.9123 L-1429.1135 -954.6623 Z" clip-path="url(#clipPath2)" stroke="none"/>
      <path fill="none" d="M-1422.8635 -859.1022 L-1422.8635 -816.865" clip-path="url(#clipPath2)"/>
      <path d="M-1422.8635 -806.865 L-1416.6135 -821.865 L-1422.8635 -818.115 L-1429.1135 -821.865 Z" clip-path="url(#clipPath2)" stroke="none"/>
      <path fill="none" d="M-1422.8635 -726.3522 L-1422.8635 -684.115" clip-path="url(#clipPath2)"/>
      <path d="M-1422.8635 -674.115 L-1416.6135 -689.115 L-1422.8635 -685.365 L-1429.1135 -689.115 Z" clip-path="url(#clipPath2)" stroke="none"/>
      <path fill="none" d="M-1422.8635 -593.6179 L-1422.8635 -565.4123" clip-path="url(#clipPath2)"/>
      <path d="M-1422.8635 -555.4123 L-1416.6135 -570.4123 L-1422.8635 -566.6623 L-1429.1135 -570.4123 Z" clip-path="url(#clipPath2)" stroke="none"/>
    </g>
  </g>
</svg>
